<svg width="692" height="499.87671" xmlns="http://www.w3.org/2000/svg" data-name="Layer 1">

 <g>
  <title>Layer 1</title>
  <path id="svg_1" fill="#ccc" d="m691,496.04308l-690,0a1,1 0 0 1 0,-2l690,0a1,1 0 0 1 0,2z"/>
  <path id="svg_2" fill="#ccc" d="m622.70437,321.64135l-406,0a6.5,6.5 0 1 0 0,13l11.5,0l0,155.5a6.5,6.5 0 0 0 13,0l0.09878,-155.5l355.90122,0l0,155.5a6.5,6.5 0 0 0 13,0l0,-152.07264l1.89111,-3.42737l10.60889,0a6.5,6.5 0 1 0 0,-13l0,0.00001z"/>
  <path id="svg_3" fill="#3f3d56" d="m441.79406,325.04308l-122.98182,0a8.992,8.992 0 0 1 -8.98182,-8.98182l0,-67.70909a8.992,8.992 0 0 1 8.98182,-8.98182l122.98182,0a8.992,8.992 0 0 1 8.98182,8.98182l0,67.70909a8.992,8.992 0 0 1 -8.98182,8.98182z"/>
  <path id="svg_4" fill="#fff" d="m441.79338,246.28307l-122.98046,0a2.07422,2.07422 0 0 0 -2.06983,2.07l0,67.71a2.07427,2.07427 0 0 0 2.06983,2.07l122.98046,0a2.07427,2.07427 0 0 0 2.06983,-2.07l0,-67.71a2.07422,2.07422 0 0 0 -2.06983,-2.07z"/>
  <path id="svg_5" fill="#2f2e41" d="m390.792,294.22119s-14.72226,-3.39247 -22.81951,2.827s10.30559,20.3548 10.30559,20.3548l12.51392,-23.1818z"/>
  <circle id="svg_6" fill="#a0616a" r="13.88708" cy="273.92427" cx="381.0242"/>
  <path id="svg_7" fill="#2f2e41" d="m370.28574,254.43013a9.89807,9.89807 0 0 1 9.12642,-4.85578a19.3971,19.3971 0 0 1 5.51548,1.5439l9.07827,3.54127c2.34912,0.91634 4.92191,2.03879 5.94127,4.34508c0.9461,2.14055 0.24023,4.61266 -0.47431,6.84123l-3.39653,10.5933a32.24633,32.24633 0 0 0 -1.92474,-6.99768a10.83489,10.83489 0 0 0 -4.70439,-5.36393c-2.35809,-1.2097 -5.13745,-1.18465 -7.78466,-1.05725c-3.74914,0.18043 -7.82552,0.65742 -10.48931,3.30181a10.89524,10.89524 0 0 0 -2.76456,5.39929a32.50033,32.50033 0 0 0 -0.57974,6.11164a50.669,50.669 0 0 1 -3.86936,-8.29541a20.52464,20.52464 0 0 1 -1.43767,-6.71481a9.44392,9.44392 0 0 1 2.16458,-6.387a6.19534,6.19534 0 0 1 6.23051,-1.96094l-0.63126,-0.04472z"/>
  <path id="svg_8" fill="#3A5AFF" d="m414.183,306.26305a2.47182,2.47182 0 0 0 -2.06982,-1.79a0.85977,0.85977 0 0 0 -0.1001,-0.06l-20.73141,-11.6182a2.63677,2.63677 0 0 0 -3.52833,0.9082l-5.66992,9.18006l-8.54,-8.54l-0.13574,-0.13581a2.6365,2.6365 0 0 0 -3.37646,-0.29528l-17.03809,11.93109c-0.02978,0 -0.06006,0.01 -0.08984,0.01a3.63267,3.63267 0 0 0 -3.03028,3.39l-0.43994,8.89l68.04,0l-3.29007,-11.87006z"/>
  <path id="svg_9" fill="#3f3d56" d="m452.1577,316.75217l-13.12728,0a1.38183,1.38183 0 0 0 -1.38182,-1.38182l-4.14545,0a1.38184,1.38184 0 0 0 -1.38182,1.38182l-4.14545,0a1.38184,1.38184 0 0 0 -1.38182,-1.38182l-4.14546,0a1.38183,1.38183 0 0 0 -1.38181,1.38182l-4.14546,0a1.38183,1.38183 0 0 0 -1.38182,-1.38182l-4.14545,0a1.38184,1.38184 0 0 0 -1.38182,1.38182l-4.14545,0a1.38184,1.38184 0 0 0 -1.38179,-1.38182l-4.14546,0a1.38183,1.38183 0 0 0 -1.38181,1.38182l-4.14546,0a1.38183,1.38183 0 0 0 -1.38182,-1.38182l-4.14545,0a1.38183,1.38183 0 0 0 -1.38182,1.38182l-4.14548,0a1.38184,1.38184 0 0 0 -1.38182,-1.38182l-4.14546,0a1.38184,1.38184 0 0 0 -1.38182,1.38182l-4.14545,0a1.38183,1.38183 0 0 0 -1.38182,-1.38182l-4.14545,0a1.38183,1.38183 0 0 0 -1.38182,1.38182l-4.14546,0a1.38183,1.38183 0 0 0 -1.38181,-1.38182l-4.14546,0a1.38184,1.38184 0 0 0 -1.38182,1.38182l-4.14545,0a1.38184,1.38184 0 0 0 -1.38182,-1.38182l-4.14545,0a1.38183,1.38183 0 0 0 -1.38182,1.38182l-4.14546,0a1.38183,1.38183 0 0 0 -1.38181,-1.38182l-4.14546,0a1.38184,1.38184 0 0 0 -1.38182,1.38182l-4.14542,0a1.38184,1.38184 0 0 0 -1.38182,-1.38182l-4.14548,0a1.38183,1.38183 0 0 0 -1.38182,1.38182l-13.12728,0a4.14546,4.14546 0 0 0 0,8.29091l143.7091,0a4.14545,4.14545 0 0 0 0,-8.29091z"/>
  <path id="svg_10" fill="#f2f2f2" d="m287.07906,292.67829l0,27.52572l-68.96225,0a13.77119,13.77119 0 1 1 0,-27.52572l68.96225,0z"/>
  <path id="svg_11" fill="#3A5AFF" d="m288.773,319.99227a1.05909,1.05909 0 0 1 -1.05868,1.05868l-70.8258,0a14.50393,14.50393 0 1 1 0,-29.00787l70.8258,0a1.05868,1.05868 0 0 1 0,2.11736l-70.8258,0a12.38658,12.38658 0 0 0 0,24.77315l70.8258,0a1.0591,1.0591 0 0 1 1.05868,1.05868z"/>
  <path id="svg_12" fill="#ccc" d="m287.07906,299.03035l-74.10771,0a0.21174,0.21174 0 1 1 0,-0.42347l74.10771,0a0.21174,0.21174 0 0 1 0,0.42347z"/>
  <path id="svg_13" fill="#ccc" d="m287.07906,304.11205l-74.10771,0a0.21174,0.21174 0 1 1 0,-0.42347l74.10771,0a0.21174,0.21174 0 0 1 0,0.42347z"/>
  <path id="svg_14" fill="#ccc" d="m287.07906,309.19372l-74.10771,0a0.21174,0.21174 0 1 1 0,-0.42347l74.10771,0a0.21174,0.21174 0 0 1 0,0.42347z"/>
  <path id="svg_15" fill="#ccc" d="m287.07906,314.27535l-74.10771,0a0.21174,0.21174 0 1 1 0,-0.42347l74.10771,0a0.21174,0.21174 0 0 1 0,0.42347z"/>
  <path id="svg_16" fill="#f2f2f2" d="m274.07906,263.67829l0,27.52572l-68.96225,0a13.77119,13.77119 0 1 1 0,-27.52572l68.96225,0z"/>
  <path id="svg_17" fill="#3f3d56" d="m275.773,290.99227a1.05909,1.05909 0 0 1 -1.05868,1.05868l-70.8258,0a14.50393,14.50393 0 1 1 0,-29.00787l70.8258,0a1.05868,1.05868 0 0 1 0,2.11736l-70.8258,0a12.38658,12.38658 0 0 0 0,24.77315l70.8258,0a1.0591,1.0591 0 0 1 1.05868,1.05868z"/>
  <path id="svg_18" fill="#ccc" d="m274.07906,270.03035l-74.10771,0a0.21174,0.21174 0 1 1 0,-0.42347l74.10771,0a0.21174,0.21174 0 0 1 0,0.42347z"/>
  <path id="svg_19" fill="#ccc" d="m274.07906,275.11205l-74.10771,0a0.21174,0.21174 0 1 1 0,-0.42347l74.10771,0a0.21174,0.21174 0 0 1 0,0.42347z"/>
  <path id="svg_20" fill="#ccc" d="m274.07906,280.19372l-74.10771,0a0.21174,0.21174 0 1 1 0,-0.42347l74.10771,0a0.21174,0.21174 0 0 1 0,0.42347z"/>
  <path id="svg_21" fill="#ccc" d="m274.07906,285.27535l-74.10771,0a0.21174,0.21174 0 1 1 0,-0.42347l74.10771,0a0.21174,0.21174 0 0 1 0,0.42347z"/>
  <path id="svg_22" fill="#ccc" d="m354.30315,418.04308l0,-24a4.00008,4.00008 0 0 0 -4,-4l-91,0a4.00008,4.00008 0 0 0 -4,4l0,24l99,0z"/>
  <rect id="svg_23" fill="#ccc" height="31" width="99" y="427.04308" x="255.30315"/>
  <path id="svg_24" fill="#ccc" d="m255.30315,467.04308l0,24a4.00008,4.00008 0 0 0 4,4l91,0a4.00008,4.00008 0 0 0 4,-4l0,-24l-99,0z"/>
  <circle id="svg_25" fill="#fff" r="3" cy="405.04308" cx="304.30315"/>
  <circle id="svg_26" fill="#fff" r="3" cy="445.04308" cx="304.30315"/>
  <circle id="svg_27" fill="#fff" r="3" cy="484.19608" cx="304.46392"/>
  <path id="svg_28" fill="#f2f2f2" d="m343.07906,362.67829l0,27.52572l-68.96225,0a13.77119,13.77119 0 1 1 0,-27.52572l68.96225,0z"/>
  <path id="svg_29" fill="#6ec17d" d="m344.773,389.99227a1.05909,1.05909 0 0 1 -1.05868,1.05868l-70.8258,0a14.50394,14.50394 0 1 1 0,-29.00787l70.8258,0a1.05868,1.05868 0 0 1 0,2.11736l-70.8258,0a12.38658,12.38658 0 0 0 0,24.77315l70.8258,0a1.0591,1.0591 0 0 1 1.05868,1.05868z"/>
  <path id="svg_30" fill="#ccc" d="m343.07906,369.03035l-74.10771,0a0.21174,0.21174 0 1 1 0,-0.42347l74.10771,0a0.21174,0.21174 0 0 1 0,0.42347z"/>
  <path id="svg_31" fill="#ccc" d="m343.07906,374.11205l-74.10771,0a0.21174,0.21174 0 1 1 0,-0.42347l74.10771,0a0.21174,0.21174 0 0 1 0,0.42347z"/>
  <path id="svg_32" fill="#ccc" d="m343.07906,379.19372l-74.10771,0a0.21174,0.21174 0 1 1 0,-0.42347l74.10771,0a0.21174,0.21174 0 0 1 0,0.42347z"/>
  <path id="svg_33" fill="#ccc" d="m343.07906,384.27535l-74.10771,0a0.21174,0.21174 0 1 1 0,-0.42347l74.10771,0a0.21174,0.21174 0 0 1 0,0.42347z"/>
  <path id="svg_34" fill="#e6e6e6" d="m250.11035,183.02143l0,-175.5a7.53,7.53 0 0 1 7.52143,-7.52143l138.72857,0a7.53005,7.53005 0 0 1 7.52143,7.52143l0,175.5a7.53,7.53 0 0 1 -7.52143,7.52142l-138.72857,0a7.53,7.53 0 0 1 -7.52143,-7.52142zm7.52143,-181.35a5.85656,5.85656 0 0 0 -5.85,5.85l0,175.5a5.85657,5.85657 0 0 0 5.85,5.85l138.72857,0a5.85658,5.85658 0 0 0 5.85,-5.85l0,-175.5a5.85657,5.85657 0 0 0 -5.85,-5.85l-138.72857,0z"/>
  <path id="svg_35" fill="#3A5AFF" d="m334.77549,80.59771l0,-36.03569a3.7649,3.7649 0 0 1 3.76072,-3.76072l30.537,0a3.7649,3.7649 0 0 1 3.76072,3.76072l0,36.03569a3.76489,3.76489 0 0 1 -3.76072,3.76071l-30.537,0a3.76489,3.76489 0 0 1 -3.76072,-3.76071z"/>
  <path id="svg_36" fill="#ccc" d="m275.43978,97.31199l0,-36.03564a3.76489,3.76489 0 0 1 3.76071,-3.76071l30.537,0a3.76489,3.76489 0 0 1 3.76071,3.76071l0,36.03569a3.7649,3.7649 0 0 1 -3.76071,3.76072l-30.537,0a3.7649,3.7649 0 0 1 -3.76071,-3.76077z"/>
  <path id="svg_37" fill="#6ec17d" d="m323.07549,148.29056l0,-36.03569a3.7649,3.7649 0 0 1 3.76072,-3.76071l30.537,0a3.7649,3.7649 0 0 1 3.76072,3.76071l0,36.03569a3.7649,3.7649 0 0 1 -3.76072,3.76072l-30.537,0a3.7649,3.7649 0 0 1 -3.76072,-3.76072z"/>
  <path id="svg_38" fill="#ccc" d="m505.56292,313.04308l-31.41992,0a1.94143,1.94143 0 0 0 -0.85986,0.2l-7.93018,3.97a1.44516,1.44516 0 0 0 0,2.66l7.93018,3.97a1.94143,1.94143 0 0 0 0.85986,0.2l31.41993,0a1.64908,1.64908 0 0 0 1.74023,-1.53l0,-7.93994a1.64908,1.64908 0 0 0 -1.74024,-1.53006z"/>
  <path id="svg_39" fill="#3A5AFF" d="m507.30315,314.57311l0,7.93994a1.64908,1.64908 0 0 1 -1.74023,1.53l-6.25977,0l0,-11l6.25977,0a1.64908,1.64908 0 0 1 1.74023,1.53006z"/>
  <path id="svg_40" fill="#ffb8b8" d="m505.3265,253.64288a11.00278,11.00278 0 0 1 14.8905,6.9146a10.58813,10.58813 0 0 1 0.32019,1.435l43.93794,21.78816l10.16835,-6.73853l12.65178,14.56532l-15.52592,12.60982a11.1485,11.1485 0 0 1 -13.30125,0.513l-44.57918,-30.82819a10.51075,10.51075 0 0 1 -1.01489,0.3701a11.00314,11.00314 0 0 1 -14.01048,-8.56076a10.70772,10.70772 0 0 1 -0.16253,-1.33951a11.036,11.036 0 0 1 6.62549,-10.72901z"/>
  <path id="svg_41" fill="#3f3d56" d="m596.84106,387.79165l-48.00977,0c0,1.38 -49.48,2.5 -49.48,2.5a12.85953,12.85953 0 0 0 -2.10986,2a12.41025,12.41025 0 0 0 -2.90039,8l0,2a12.5046,12.5046 0 0 0 12.5,12.5l90,0a12.51088,12.51088 0 0 0 12.5,-12.5l0,-2a12.51735,12.51735 0 0 0 -12.49998,-12.5z"/>
  <rect id="svg_42" fill="#3f3d56" transform="rotate(-180, 1356.23, 1112.65)" height="84" width="13" y="1727.00844" x="2154.85249"/>
  <path id="svg_43" fill="#3f3d56" d="m507.6175,497.83835c0,1.40463 19.69947,0.54331 44,0.54331s44,0.86132 44,-0.54331s-19.69947,-12.54331 -44,-12.54331s-44,11.1387 -44,12.54331z"/>
  <polygon id="svg_44" fill="#ffb8b8" points="519.353 487.993 507.094 487.992 501.261 456.195 519.355 456.196 519.353 487.993"/>
  <path id="svg_45" fill="#2f2e41" d="m522.47983,499.8767l-39.53052,-0.00146l0,-0.5a15.38605,15.38605 0 0 1 15.38647,-15.38623l0.001,0l24.1438,0.001l-0.00075,15.88669z"/>
  <path id="svg_46" fill="#2f2e41" d="m501.01663,468.275l-24.44092,-54.80765a20.086,20.086 0 0 1 8.8186,-25.78418l53.01343,-28.42773l24.19116,-2.05762l22.3147,-2.02832l0.16089,0.27246c0.20581,0.34766 5.00366,8.63477 1.7605,17.72168c-2.46,6.89258 -8.85889,12.27637 -19.0188,16.00195c-23.71436,8.69532 -51.10913,16.127 -61.78638,18.918a3.45079,3.45079 0 0 0 -2.21118,1.75977a3.49812,3.49812 0 0 0 -0.19629,2.79883l22.70654,51.01464a4.49992,4.49992 0 0 1 -3.80932,6.0293l-16.96656,1.23535q-0.21606,0.02051 -0.43017,0.02051a4.49688,4.49688 0 0 1 -4.1062,-2.66699z"/>
  <polygon id="svg_47" fill="#ffb8b8" points="525.353 487.993 513.094 487.992 507.261 456.195 525.355 456.196 525.353 487.993"/>
  <path id="svg_48" fill="#2f2e41" d="m528.47983,499.8767l-39.53052,-0.00146l0,-0.5a15.38605,15.38605 0 0 1 15.38647,-15.38623l0.001,0l24.1438,0.001l-0.00075,15.88669z"/>
  <path id="svg_49" fill="#2f2e41" d="m508.01663,471.275l-24.44092,-54.80765a20.086,20.086 0 0 1 8.8186,-25.78418l53.01343,-28.42773l24.19116,-2.05762l22.3147,-2.02832l0.16089,0.27246c0.20581,0.34766 5.00366,8.63477 1.7605,17.72168c-2.46,6.89258 -8.85889,12.27637 -19.0188,16.00195c-23.71436,8.69532 -51.10913,16.127 -61.78638,18.918a3.45079,3.45079 0 0 0 -2.21118,1.75977a3.49812,3.49812 0 0 0 -0.19629,2.79883l22.70654,51.01464a4.49992,4.49992 0 0 1 -3.80932,6.0293l-16.96656,1.23535q-0.21606,0.02051 -0.43017,0.02051a4.49688,4.49688 0 0 1 -4.1062,-2.66699z"/>
  <path id="svg_50" fill="#ccc" d="m495.83452,303.84426a167.50633,167.50633 0 0 1 -24.0754,-44.93173a4.30258,4.30258 0 0 1 2.03179,-5.17938l35.14526,-18.83159a4.2466,4.2466 0 0 1 3.72553,-0.15123a4.31914,4.31914 0 0 1 2.46131,2.884a102.32846,102.32846 0 0 0 22.44563,41.89073a4.31809,4.31809 0 0 1 1.03824,3.64654a4.24658,4.24658 0 0 1 -2.1894,3.01811l-35.14525,18.83164a4.30258,4.30258 0 0 1 -5.43771,-1.17709z"/>
  <path id="svg_51" fill="#fff" d="m498.23284,302.0421a1.29853,1.29853 0 0 0 1.62207,0.335l35.14551,-18.832a1.24591,1.24591 0 0 0 0.65258,-0.897a1.31807,1.31807 0 0 0 -0.325,-1.12793a105.34018,105.34018 0 0 1 -23.10693,-43.125a1.31863,1.31863 0 0 0 -0.75806,-0.895a1.24691,1.24691 0 0 0 -1.11035,0.0459l-35.14473,18.83148a1.29831,1.29831 0 0 0 -0.61962,1.53711a164.50711,164.50711 0 0 0 23.64453,44.12744z"/>
  <path id="svg_52" fill="#3A5AFF" d="m612.59251,298.8209l-27.52466,10.45937l-6.72,-18.66664a11.16823,11.16823 0 0 1 5.002,-13.4995l0,0a11.16823,11.16823 0 0 1 14.26249,2.78445l14.98017,18.92232z"/>
  <path id="svg_53" fill="#3A5AFF" d="m542.58273,372.78091a4.99862,4.99862 0 0 1 -2.0835,-3.54883c-3.52539,-32.90967 -1.06982,-58.66406 7.50586,-78.73486a24.99166,24.99166 0 0 1 16.5669,-14.17969l22.24951,-1.12305l0.11523,0.05567a26.00516,26.00516 0 0 1 14.21927,27.58838c-7.15625,18.86328 -13.14844,38.50293 -8.57861,54.34619a5.12194,5.12194 0 0 1 -0.48389,3.9834a4.88411,4.88411 0 0 1 -3.11572,2.30908l-42.37845,10.08105a4.96422,4.96422 0 0 1 -4.0166,-0.77734z"/>
  <circle id="svg_54" fill="#ffb8b8" r="24.56103" cy="242.32319" cx="579.39612"/>
  <path id="svg_55" fill="#ccc" d="m511.24342,261.77622l-19.1416,8.44957a3.00328,3.00328 0 0 1 -3.956,-1.533l-0.47343,-1.07251a3.00328,3.00328 0 0 1 1.533,-3.956l19.1416,-8.44957a3.00328,3.00328 0 0 1 3.956,1.533l0.47343,1.07251a3.00328,3.00328 0 0 1 -1.533,3.956z"/>
  <path id="svg_56" fill="#ccc" d="m518.24342,274.77622l-19.1416,8.44957a3.00328,3.00328 0 0 1 -3.956,-1.533l-0.47343,-1.07251a3.00328,3.00328 0 0 1 1.533,-3.956l19.1416,-8.44957a3.00328,3.00328 0 0 1 3.956,1.533l0.47343,1.07251a3.00328,3.00328 0 0 1 -1.533,3.956z"/>
  <path id="svg_57" fill="#ffb8b8" d="m533.00509,325.55335l-42.67431,-33.666a10.51709,10.51709 0 0 1 -1.03614,0.30566a11.02708,11.02708 0 0 1 -8.81787,-1.69141a10.9127,10.9127 0 0 1 -4.62646,-7.73339a11.02293,11.02293 0 0 1 7.209,-11.63819a11.00361,11.00361 0 0 1 14.42627,7.8374a10.5714,10.5714 0 0 1 0.229,1.45215l42.48142,24.50734l10.57178,-6.08643l11.71093,15.332l-16.41406,11.69922a10.94192,10.94192 0 0 1 -13.05957,-0.31836l0.00001,0.00001z"/>
  <path id="svg_58" fill="#3A5AFF" d="m567.686,318.94719l-24.34869,-16.55738l11.44288,-16.20686a11.16823,11.16823 0 0 1 13.92862,-3.64l0,0a11.16822,11.16822 0 0 1 5.89441,13.2826l-6.91722,23.12164z"/>
  <path id="svg_59" fill="#2f2e41" d="m570.39127,238.66502c-6.31271,4.32051 -14.60145,8.76174 -21.04891,4.16075c-4.23352,-3.02109 -5.56737,-8.61545 -3.8506,-13.52486c3.08726,-8.82857 11.56943,-12.71531 19.68052,-15.69459c10.54441,-3.87305 22.02573,-6.95424 32.91112,-4.18055s20.5056,13.31292 18.54058,24.37293c-1.58022,8.89423 -9.97,16.29492 -8.779,25.24958c1.19867,9.01215 11.33379,13.75589 20.28149,15.36658s18.96039,2.12822 25.39074,8.5552c8.2031,8.1988 6.15465,22.85325 -1.56414,31.50955s-19.36683,12.58011 -30.6538,15.24757c-14.95454,3.53422 -31.12905,5.39161 -45.33209,-0.47378s-25.25565,-21.65433 -21.14126,-36.45976c1.73791,-6.2538 5.83191,-11.5391 9.78854,-16.68451s7.9631,-10.526 9.47238,-16.83888c1.25772,-5.26073 0.32682,-11.36869 -3.16182,-15.31484a4.437,4.437 0 0 1 -0.59439,-5.18643l0.06064,-0.10396z"/>
  <path id="svg_60" fill="#9abca0" d="m109.07219,357.99844a39.063,39.063 0 0 1 -37.72112,-6.64474c-13.212,-11.08918 -17.35436,-29.35854 -20.72485,-46.275q-4.98462,-25.01781 -9.96925,-50.0356l20.87166,14.37144c15.00965,10.33508 30.35744,21.00126 40.75007,35.97112s14.929,35.40506 6.57885,51.60315"/>
  <path id="svg_61" fill="#f2f2f2" d="m107.28809,418.57695c2.11249,-15.38745 4.28468,-30.97255 2.80288,-46.52494c-1.316,-13.81219 -5.52988,-27.30283 -14.10882,-38.36423a63.8196,63.8196 0 0 0 -16.37384,-14.83743c-1.6374,-1.03351 -3.14442,1.5614 -1.51416,2.59042a60.67179,60.67179 0 0 1 23.99885,28.95638c5.22488,13.28947 6.06392,27.77612 5.16355,41.89337c-0.54449,8.53723 -1.69847,17.01851 -2.86134,25.48891a1.5543,1.5543 0 0 0 1.04766,1.84518a1.50916,1.50916 0 0 0 1.84518,-1.04766l0.00004,0z"/>
  <path id="svg_62" fill="#9abca0" d="m86.941,391.34843a28.75526,28.75526 0 0 1 -25.05474,12.93133c-12.68314,-0.60208 -23.25684,-9.45412 -32.77515,-17.85807l-28.15329,-24.85721l18.63281,-0.8917c13.39961,-0.64126 27.14492,-1.23941 39.90759,2.89278s24.53307,14.0769 26.8668,27.2873"/>
  <path id="svg_63" fill="#f2f2f2" d="m113.25813,427.42247c-10.16773,-17.99115 -21.96141,-37.98627 -43.03473,-44.377a48.02218,48.02218 0 0 0 -18.10109,-1.869c-1.9218,0.16571 -1.44191,3.12811 0.4764,2.9627a44.61381,44.61381 0 0 1 28.88649,7.64231c8.1449,5.544 14.48659,13.25166 19.85414,21.42526c3.28779,5.00657 6.23278,10.22555 9.17833,15.43753c0.94134,1.66563 3.69279,0.46329 2.74046,-1.22181l0,0.00001z"/>
  <path id="svg_64" fill="#f2f2f2" d="m129.54973,446.35949a21.77376,21.77376 0 0 0 -13.34273,-18.23682l0,-10.401l-17.44487,0l0,10.72876a21.76258,21.76258 0 0 0 -12.61621,17.90906l-4.102,47.68359l51.60791,0l-4.1021,-47.68359z"/>
 </g>
</svg>